<svg version="1.0" xmlns="http://www.w3.org/2000/svg" viewBox="0 0 340 250" color-interpolation-filters="sRGB" style="margin:auto"><g fill="#FFF" class="iconmbgsvg"><g mask="url(#a)" transform="translate(49 4)"><path class="image-rect" fill="none" d="M0 0h242v242H0z"/><svg width="242" height="242" class="image-svg-svg primary" style="overflow:visible"><svg fill="#1c085d" xmlns="http://www.w3.org/2000/svg" xmlns:xlink="http://www.w3.org/1999/xlink" xml:space="preserve" style="shape-rendering:geometricPrecision;text-rendering:geometricPrecision;image-rendering:optimizeQuality" viewBox="0 0 249 249" fill-rule="evenodd" clip-rule="evenodd"><path class="fil0" d="M125 0c68 0 124 56 124 125 0 68-56 124-124 124C56 249 0 193 0 125 0 56 56 0 125 0z"/></svg></svg><path transform="translate(-6 -6)" style="pointer-events:none" fill="url(#b)" d="M0 0h254v254H0z"/></g><path d="M158.423 89.744h-44.361v29.295h39.339v18.582h-39.339v30.969h44.361v19.083H90.626V70.661h67.797v19.083Zm61.603 99.101q-12.22 0-22.022-4.185-9.784-4.185-15.475-12.053-5.692-7.868-5.86-18.581h25.11q.503 7.198 5.116 11.383 4.594 4.185 12.629 4.185 8.203 0 12.89-3.925 4.687-3.943 4.687-10.304 0-5.19-3.18-8.537-3.181-3.348-7.961-5.264-4.762-1.935-13.132-4.278-11.383-3.348-18.507-6.603-7.105-3.274-12.22-9.877-5.097-6.621-5.097-17.67 0-10.379 5.19-18.079 5.19-7.7 14.564-11.811 9.374-4.092 21.427-4.092 18.079 0 29.37 8.798 11.308 8.779 12.48 24.515h-25.78q-.335-6.027-5.096-9.951-4.78-3.944-12.648-3.944-6.864 0-10.974 3.516-4.092 3.515-4.092 10.211 0 4.687 3.087 7.794 3.107 3.087 7.7 5.003 4.614 1.934 12.984 4.445 11.383 3.348 18.581 6.696t12.388 10.044q5.189 6.696 5.189 17.577 0 9.375-4.855 17.41-4.854 8.035-14.229 12.815-9.374 4.762-22.264 4.762Z" data-gra="path-name" class="tp-name"/></g><defs><linearGradient x1="0" y1="1" x2="0" y2="0" id="b"><stop offset="0%" stop-color="#091f3f"/><stop offset="100%" stop-color="#527895"/></linearGradient><filter id="c" filterUnits="userSpaceOnUse"><feColorMatrix values="0 0 0 0 0.99609375 0 0 0 0 0.99609375 0 0 0 0 0.99609375 0 0 0 1 0"/></filter></defs><mask id="a"><g filter="url(#c)"><path fill="#FFF" fill-opacity="0" stroke-width="2" class="image-rect" d="M0 0h242v242H0z"/><svg width="242" height="242" class="image-svg-svg primary" style="overflow:visible"><svg fill="#1c085d" xmlns="http://www.w3.org/2000/svg" xmlns:xlink="http://www.w3.org/1999/xlink" xml:space="preserve" style="shape-rendering:geometricPrecision;text-rendering:geometricPrecision;image-rendering:optimizeQuality" viewBox="0 0 249 249" fill-rule="evenodd" clip-rule="evenodd"><path class="fil0" d="M125 0c68 0 124 56 124 125 0 68-56 124-124 124C56 249 0 193 0 125 0 56 56 0 125 0z"/></svg></svg></g></mask></svg>